<svg width="667" height="686" viewBox="0 0 667 686" fill="none" xmlns="http://www.w3.org/2000/svg">
<path fill-rule="evenodd" clip-rule="evenodd" d="M579.455 36.8047C604.189 42.8643 637.588 52.0361 667 60.6416V123.529C648.23 122.272 629.849 120.774 612.106 119.045C482.433 106.406 344.267 77.2197 220.741 36.3701C194.697 27.7578 189.579 26.9199 177.367 29.2666C164.767 31.6885 156.319 36.0664 147.372 44.8135C119.725 71.834 126.539 115.39 161.206 133.238C174.874 140.276 250.707 163.535 305.048 177.355C423.001 207.354 545.056 226.823 667 235.262V277.91V327.135C523.272 285.741 372.634 260.585 214.089 251.501C185.703 249.876 53.2311 249.469 20.2148 250.907L0.147217 251.78L0.611816 174.887C1.0498 102.363 1.22009 97.1455 3.60474 83.1299C8.76794 52.7812 17.6483 22.4863 27.8595 0H385.633C450.763 8.69531 513.974 20.7627 579.455 36.8047ZM667 443.669C605.46 424.841 532.312 406.477 469.005 394.212C338.945 369.016 197.159 357.599 61.2008 361.376C34.4009 362.12 9.66711 363.045 6.23608 363.429L0 364.129L0.797119 376.572C8.95801 503.802 92.2345 616.247 212.93 663.005C238.221 672.803 263.853 679.256 296.357 684.011C309.261 685.897 555.39 686.815 581.741 685.072C611.721 683.091 639.892 677.703 667 668.656V615.208C534.778 606.293 391.925 581.973 265.072 546.5C216.007 532.78 169.6 517.852 159.645 512.589C151.166 508.104 140.342 496.936 135.954 488.142C120.517 457.207 138.444 418.845 172.416 410.114C186.603 406.469 193.17 407.403 224.82 417.572C373.47 465.329 517.234 493.39 667 503.428V483.14V443.669Z" fill="url(#paint0_linear_161_39)"/>
<defs>
<linearGradient id="paint0_linear_161_39" x1="654.914" y1="-171.5" x2="207.405" y2="677.765" gradientUnits="userSpaceOnUse">
<stop offset="0.192405" stop-color="#913E97"/>
<stop offset="1" stop-color="#623996"/>
</linearGradient>
</defs>
</svg>
