<svg width="689" height="680" viewBox="0 0 689 680" fill="none" xmlns="http://www.w3.org/2000/svg">
<path fill-rule="evenodd" clip-rule="evenodd" d="M0 42.103C39.3728 19.4639 84.9639 4.90526 129.376 1.04613C145.053 -0.315688 382.35 -0.362807 398.126 0.992174C471.969 7.33959 538.533 37.7229 591.983 89.4768C645.966 141.747 678.486 207.51 687.197 282.021C688.111 289.842 688.859 300.023 688.859 304.646V313.05L655.059 313.883C578.456 315.768 493.838 312.747 420.659 305.513C297.648 293.353 166.58 265.271 49.4006 225.969C24.6943 217.683 19.8392 216.876 8.25497 219.135C5.28235 219.714 2.55329 220.41 0 221.258V175.621C21.4928 175.847 40.1409 176.215 49.6853 176.708C171.697 183.017 277.16 198.426 389.685 226.386C434.513 237.524 509.338 259.593 530.484 267.911C536.602 270.318 539.423 270.752 548.714 270.717C565.738 270.653 576.635 266.039 588.048 254.065C599.567 241.978 604.751 225.555 602.21 209.196C600.552 198.529 596.631 190.442 589.25 182.464C578.551 170.899 574.977 169.182 533.875 155.845C383.773 107.142 208.728 76.1318 44.739 69.1904C33.0817 68.6977 14.704 68.0569 0 67.6216V42.103ZM0 431.91V322.237C22.8577 331.179 84.0113 349.914 129.376 361.615C293.183 403.87 465.33 424.407 633.274 421.73C658.623 421.326 681.531 420.698 684.181 420.334L689 419.674L688.575 493.25L688.574 493.396C688.243 550.457 688.15 566.444 685.678 582.056C684.716 588.131 683.394 594.148 681.557 602.507L681.542 602.573C677.758 619.792 668.435 647.434 660.585 664.717L654.09 679.015L609.096 679.356C416.173 680.82 238.73 653.168 53.2698 592.736C23.2456 582.952 17.0166 582.054 3.55818 585.562C2.35043 585.876 1.16413 586.231 0 586.624V538.789C96.565 541.68 193.772 552.353 284.91 570.261C359.64 584.944 448.827 608.716 513.263 631.126C534.149 638.39 555.19 633.247 570.178 617.214C580.938 605.705 584.411 596.633 584.412 580.025C584.414 565.453 581.135 556.487 571.871 545.733C566.901 539.962 556.614 533.033 548.516 530.001C538.385 526.208 496.239 512.642 476.717 506.892C339.173 466.37 194.955 441.779 43.0902 432.953C35.3526 432.504 19.4621 432.151 0 431.91Z" fill="url(#paint0_linear_161_38)"/>
<defs>
<linearGradient id="paint0_linear_161_38" x1="344.5" y1="0" x2="133.5" y2="679" gradientUnits="userSpaceOnUse">
<stop offset="0.183368" stop-color="#623996"/>
<stop offset="0.778905" stop-color="#913E97"/>
</linearGradient>
</defs>
</svg>
